<svg width="245" height="86" viewBox="0 0 245 86" fill="none" xmlns="http://www.w3.org/2000/svg">
<path d="M226.5 85.0625H197.438C203.188 60.1875 207.25 33.1875 209.625 4.0625C209.625 3.52083 210.292 2.70833 211.625 1.625C213 0.541667 214.167 0 215.125 0H244.188C238.396 24.6667 234.312 51.6458 231.938 80.9375C231.938 81.4792 231.271 82.3125 229.938 83.4375C228.604 84.5208 227.458 85.0625 226.5 85.0625Z" fill="#C4D9FF"/>
<path d="M180.25 85.0625H151.188C147.938 59.1458 143.833 36.6458 138.875 17.5625C141.292 12.6458 143.354 8.14583 145.062 4.0625C145.354 3.4375 146.104 2.60417 147.312 1.5625C148.562 0.520833 149.625 0 150.5 0H170.375C172.083 12.5833 174.375 26.6042 177.25 42.0625C180.167 57.4792 183 70.4375 185.75 80.9375C185.75 81.4792 185.083 82.3125 183.75 83.4375C182.417 84.5208 181.25 85.0625 180.25 85.0625ZM130.312 74L130.5 80.9375C130.5 81.4792 129.812 82.3125 128.438 83.4375C127.104 84.5208 125.958 85.0625 125 85.0625H105.062C111.646 73.8958 121.854 53.4375 135.688 23.6875C136.062 24.7708 136.25 26.2917 136.25 28.25C136.25 30.1667 135.958 32.9583 135.375 36.625C134.833 40.2917 134.125 44.625 133.25 49.625C132.375 54.5833 131.729 58.6042 131.312 61.6875C137.312 62.6042 141.667 63.625 144.375 64.75C144.375 67.25 143.958 69.1042 143.125 70.3125C138.792 70.6875 134.521 71.25 130.312 72V74Z" fill="#C4D9FF"/>
<path d="M94.3125 85.0625H66.75C67 74.8125 67.125 64.375 67.125 53.75C67.125 43.125 66.6042 31.0625 65.5625 17.5625C66.9792 14.6042 68.9583 10.1042 71.5 4.0625C71.7917 3.39583 72.5417 2.5625 73.75 1.5625C74.9583 0.520833 76.0208 0 76.9375 0H96.0625C95.7708 5.5 95.625 11.6042 95.625 18.3125C95.625 39.3125 97.0208 60.1875 99.8125 80.9375C99.8125 81.4792 99.1458 82.3125 97.8125 83.4375C96.4792 84.5208 95.3125 85.0625 94.3125 85.0625ZM51.4375 81.8125C51.1458 82.4375 50.5 83.1458 49.5 83.9375C48.5 84.6875 47.7083 85.0625 47.125 85.0625H37.1875C35.4375 74.6875 33.1667 63.7708 30.375 52.3125C27.5833 40.8542 24.8125 31.4167 22.0625 24C22.2292 23.0417 22.7708 20.125 23.6875 15.25C24.6458 10.3333 25.3125 6.60417 25.6875 4.0625C25.8125 3.47917 26.5208 2.66667 27.8125 1.625C29.1042 0.541667 30.2083 0 31.125 0H49.3125C52.1875 16.6667 54.5625 27.9375 56.4375 33.8125C58.3542 39.6458 60.1042 44.3125 61.6875 47.8125C57.6875 59.7708 54.2708 71.1042 51.4375 81.8125ZM20.6875 39.875C20.8958 50.2917 21.2708 58.25 21.8125 63.75C22.3958 69.25 23.625 74.9792 25.5 80.9375C25.5 81.4792 24.8125 82.3125 23.4375 83.4375C22.1042 84.5208 20.9375 85.0625 19.9375 85.0625H0C4.125 75.2292 7.35417 67.2708 9.6875 61.1875C12.0208 55.0625 13.875 49.3125 15.25 43.9375C15.25 43.3958 15.9167 42.5833 17.25 41.5C18.5833 40.4167 19.7292 39.875 20.6875 39.875Z" fill="#C4D9FF"/>
</svg>
