<svg width="644" height="88" viewBox="0 0 644 88" fill="none" xmlns="http://www.w3.org/2000/svg">
<path d="M603.195 22.8125C598.237 26.4792 594.508 31.4583 592.008 37.75C589.549 44 588.32 50.1667 588.32 56.25C588.32 62.3333 588.987 67.7917 590.32 72.625C591.695 77.4167 593.529 80.625 595.82 82.25C595.82 82.875 595.154 83.75 593.82 84.875C592.487 85.9583 591.341 86.5 590.383 86.5C580.924 86.5 573.279 84.0208 567.445 79.0625C561.654 74.1042 558.758 67.4167 558.758 59C558.758 48.9167 562.654 40.4167 570.445 33.5C574.154 30.2083 578.82 27.6042 584.445 25.6875C590.112 23.7708 596.362 22.8125 603.195 22.8125ZM631.883 82.25C631.883 82.8333 631.216 83.6875 629.883 84.8125C628.549 85.9375 627.383 86.5 626.383 86.5H601.258C603.091 78.7917 605.07 66.1042 607.195 48.4375C609.32 30.7708 610.904 16 611.945 4.125C611.945 3.58333 612.612 2.77083 613.945 1.6875C615.279 0.5625 616.424 0 617.383 0H643.695C641.487 9.16667 639.195 22.3958 636.82 39.6875C634.445 56.9375 632.799 71.125 631.883 82.25Z" fill="#C4D9FF"/>
<path d="M539.248 24.375C544.915 26.3333 549.206 29.0833 552.123 32.625C555.081 36.125 556.561 39.875 556.561 43.875C556.561 49.3333 554.206 53.9583 549.498 57.75C544.79 61.5417 538.373 63.4375 530.248 63.4375C527.706 63.4375 524.915 63.0208 521.873 62.1875C526.29 59.4375 529.269 55.8542 530.811 51.4375C532.144 47.6042 532.811 43.1042 532.811 37.9375C532.811 36.9375 532.706 33.875 532.498 28.75C532.456 28.2083 533.29 27.3542 534.998 26.1875C536.748 25.0208 538.165 24.4167 539.248 24.375ZM529.123 23.375C523.956 26.875 519.852 31.4792 516.811 37.1875C513.811 42.8958 512.311 49 512.311 55.5C512.311 62 514.811 67.2917 519.811 71.375C524.811 75.4583 532.102 77.5 541.686 77.5C544.311 77.5 547.123 77.2708 550.123 76.8125C548.165 79.8958 544.394 82.4792 538.811 84.5625C533.227 86.6042 527.373 87.625 521.248 87.625C515.123 87.625 509.894 87.0208 505.561 85.8125C501.227 84.5625 497.352 82.7292 493.936 80.3125C490.561 77.8958 487.894 74.75 485.936 70.875C483.977 66.9583 482.998 62.6667 482.998 58C482.998 53.2917 483.727 49.0417 485.186 45.25C486.644 41.4583 488.644 38.2083 491.186 35.5C493.727 32.7917 496.686 30.4583 500.061 28.5C506.769 24.7083 514.498 22.8125 523.248 22.8125C525.415 22.8125 527.373 23 529.123 23.375Z" fill="#C4D9FF"/>
<path d="M479.362 22.8125C484.112 22.8125 486.487 25.7917 486.487 31.75C486.487 35.4583 485.841 39.1667 484.55 42.875C483.258 46.5417 481.633 49.3542 479.675 51.3125C476.925 49.3958 473.529 47.8125 469.487 46.5625C465.487 45.2708 461.654 44.5625 457.987 44.4375C458.321 42.1458 458.987 39.7083 459.987 37.125C466.696 27.5833 473.154 22.8125 479.362 22.8125ZM441.925 86.5H415.737C419.987 68.3333 422.987 49.0625 424.737 28.6875C424.737 28.2292 425.404 27.4792 426.737 26.4375C428.112 25.3958 429.508 24.75 430.925 24.5C432.383 24.25 436.112 23.9167 442.112 23.5C448.154 23.0417 452.779 22.8125 455.987 22.8125C451.862 43.4375 448.987 63.2917 447.362 82.375C447.362 82.9167 446.696 83.75 445.362 84.875C444.029 85.9583 442.883 86.5 441.925 86.5Z" fill="#C4D9FF"/>
<path d="M400.853 24.6875C405.644 25.6875 409.478 27.8542 412.353 31.1875C415.269 34.5208 416.728 37.875 416.728 41.25C416.728 44.5833 415.248 47.0625 412.29 48.6875C409.332 50.2708 406.373 51.0625 403.415 51.0625C400.457 51.0625 397.498 50.5 394.54 49.375C394.832 45.4583 394.978 41.8958 394.978 38.6875C394.978 35.4375 394.707 32.125 394.165 28.75C394.29 27.8333 395.123 26.9375 396.665 26.0625C398.248 25.1458 399.644 24.6875 400.853 24.6875ZM390.29 23C385.957 26.3333 382.353 30.8542 379.478 36.5625C376.644 42.2708 375.228 47.7083 375.228 52.875C375.228 58.0417 375.853 62.1667 377.103 65.25C378.353 68.3333 380.123 70.8125 382.415 72.6875C386.957 76.3958 392.853 78.25 400.103 78.25C403.769 78.25 407.686 77.7708 411.853 76.8125C408.394 80.9375 404.186 83.7708 399.228 85.3125C394.269 86.8542 388.123 87.625 380.79 87.625C373.457 87.625 367.123 86.5208 361.79 84.3125C356.498 82.1042 352.248 78.7083 349.04 74.125C345.832 69.5417 344.228 63.9583 344.228 57.375C344.228 50.75 345.936 44.7083 349.353 39.25C352.769 33.75 357.332 29.5208 363.04 26.5625C368.748 23.6042 375.04 22.125 381.915 22.125C384.123 22.125 386.915 22.4167 390.29 23Z" fill="#C4D9FF"/>
<path d="M282.343 86.5H256.093C260.426 68.25 263.426 48.9792 265.093 28.6875C265.093 28.1875 265.759 27.4375 267.093 26.4375C268.426 25.3958 269.822 24.75 271.28 24.5C272.78 24.25 276.405 23.9167 282.155 23.5C287.947 23.0417 292.426 22.8125 295.593 22.8125C292.218 40.2708 289.614 60.125 287.78 82.375C287.78 82.9167 287.114 83.75 285.78 84.875C284.447 85.9583 283.301 86.5 282.343 86.5ZM304.905 87.125C302.489 84.7917 301.28 81.7917 301.28 78.125C301.28 74.4583 302.197 67.4583 304.03 57.125C305.905 46.7917 306.843 40.4375 306.843 38.0625C306.843 35.6458 306.259 33.9167 305.093 32.875C303.968 31.7917 302.489 31.25 300.655 31.25C301.03 28.75 301.739 26.875 302.78 25.625C304.322 24.875 306.739 24.1875 310.03 23.5625C313.364 22.9375 316.447 22.625 319.28 22.625C324.822 22.625 328.968 23.8958 331.718 26.4375C334.509 28.9792 335.905 33 335.905 38.5C335.905 41.5833 335.239 47 333.905 54.75C332.572 62.5 331.905 67.25 331.905 69C331.905 70.75 331.968 72.0625 332.093 72.9375C332.259 73.8125 332.384 74.5 332.468 75C332.593 75.5 332.884 76.0833 333.343 76.75C333.801 77.375 334.093 77.7708 334.218 77.9375C334.343 78.0625 334.759 78.4792 335.468 79.1875C336.176 79.8542 336.593 80.25 336.718 80.375C336.718 80.9583 336.114 81.9375 334.905 83.3125C333.697 84.6458 332.593 85.5208 331.593 85.9375C326.259 86.7292 317.364 87.125 304.905 87.125Z" fill="#C4D9FF"/>
<path d="M245.582 84C237.457 85.75 228.728 86.625 219.395 86.625C217.27 83.75 216.207 80.7292 216.207 77.5625C216.207 74.3958 217.145 66.375 219.02 53.5C220.895 40.5833 221.853 32 221.895 27.75C221.895 27.2083 222.582 26.3958 223.957 25.3125C225.332 24.2292 226.478 23.6875 227.395 23.6875C236.311 23.6875 244.707 24.875 252.582 27.25C252.415 28.5833 251.311 33.8958 249.27 43.1875C247.228 52.4375 246.207 59.875 246.207 65.5C246.207 71.0833 247.707 75.375 250.707 78.375C250.707 78.9583 250.124 79.9375 248.957 81.3125C247.79 82.6458 246.665 83.5417 245.582 84ZM216.645 22.8125C211.686 26.4792 207.915 31.4583 205.332 37.75C202.79 44.0417 201.52 50.2292 201.52 56.3125C201.52 62.3542 202.186 67.7917 203.52 72.625C204.895 77.4167 206.728 80.625 209.02 82.25C209.02 82.875 208.353 83.75 207.02 84.875C205.686 85.9583 204.54 86.5 203.582 86.5C194.04 86.5 186.374 84.1042 180.582 79.3125C174.832 74.5208 171.957 67.9792 171.957 59.6875C171.957 49.3958 175.853 40.75 183.645 33.75C187.395 30.375 192.103 27.7083 197.77 25.75C203.478 23.7917 209.77 22.8125 216.645 22.8125Z" fill="#C4D9FF"/>
<path d="M132.885 87.125C130.468 84.7917 129.26 81.7917 129.26 78.125C129.26 74.4583 130.176 67.4583 132.01 57.125C133.885 46.7917 134.822 40.4375 134.822 38.0625C134.822 35.6458 134.239 33.9167 133.072 32.875C131.947 31.7917 130.468 31.25 128.635 31.25C129.01 28.75 129.718 26.875 130.76 25.625C132.301 24.875 134.718 24.1875 138.01 23.5625C141.343 22.9375 144.426 22.625 147.26 22.625C152.801 22.625 156.947 23.8958 159.697 26.4375C162.489 28.9792 163.885 33 163.885 38.5C163.885 41.5833 163.218 47 161.885 54.75C160.551 62.5 159.885 67.25 159.885 69C159.885 70.75 159.947 72.0625 160.072 72.9375C160.239 73.8125 160.364 74.5 160.447 75C160.572 75.5 160.864 76.0833 161.322 76.75C161.781 77.375 162.072 77.7708 162.197 77.9375C162.322 78.0625 162.739 78.4792 163.447 79.1875C164.156 79.8542 164.572 80.25 164.697 80.375C164.697 80.9583 164.093 81.9375 162.885 83.3125C161.676 84.6458 160.572 85.5208 159.572 85.9375C154.239 86.7292 145.343 87.125 132.885 87.125ZM116.072 82.25C116.072 82.8333 115.406 83.6875 114.072 84.8125C112.739 85.9375 111.572 86.5 110.572 86.5H84.8223C86.6556 78.6667 88.7598 65.5833 91.1348 47.25C93.5514 28.9167 95.2181 14.5417 96.1348 4.125C96.1348 3.58333 96.8014 2.77083 98.1348 1.6875C99.4681 0.5625 100.614 0 101.572 0H127.885C125.676 9.16667 123.385 22.3958 121.01 39.6875C118.635 56.9375 116.989 71.125 116.072 82.25Z" fill="#C4D9FF"/>
<path d="M46.875 86.5H17.75C23.875 64.375 28.2292 37.375 30.8125 5.5C30.8125 4.95833 31.4792 4.14583 32.8125 3.0625C34.1875 1.97917 35.3333 1.4375 36.25 1.4375H64.125C58.75 24.0625 54.8333 51.0417 52.375 82.375C52.375 82.9167 51.7083 83.75 50.375 84.875C49.0417 85.9583 47.875 86.5 46.875 86.5ZM76.125 40.5625C76.125 34.8542 75.2083 28.5208 73.375 21.5625C71.5833 14.6042 69.6458 9.5625 67.5625 6.4375C67.8125 4.52083 68.4375 2.85417 69.4375 1.4375H88.875C87.5417 13.9792 85.7708 25.6458 83.5625 36.4375C83.3958 37.0625 82.375 37.9167 80.5 39C78.6667 40.0417 77.2083 40.5625 76.125 40.5625ZM0 40.5C0.333333 35.625 1.125 29.2292 2.375 21.3125C3.625 13.3542 4.5625 8.20833 5.1875 5.875C5.47917 5.04167 6.1875 4.10417 7.3125 3.0625C8.47917 1.97917 9.4375 1.4375 10.1875 1.4375H29.1875C24.9375 6.52083 21.6667 11.2083 19.375 15.5C17.125 19.7917 14.9375 23.9583 12.8125 28C10.7292 32 9.125 35.0417 8 37.125C7.75 37.5833 6.58333 38.2708 4.5 39.1875C2.45833 40.0625 0.958333 40.5 0 40.5Z" fill="#C4D9FF"/>
</svg>
